<mxfile host="Electron" modified="2023-06-21T11:09:17.524Z" agent="Mozilla/5.0 (Macintosh; Intel Mac OS X 10_15_7) AppleWebKit/537.36 (KHTML, like Gecko) draw.io/21.5.0 Chrome/112.0.5615.204 Electron/24.5.1 Safari/537.36" etag="9U8B_ppBgLwi7kCFhP4-" version="21.5.0" type="device">
  <diagram name="main" id="Y63K97WbRGa1AhFcxirE">
    <mxGraphModel dx="3655" dy="1885" grid="1" gridSize="10" guides="1" tooltips="1" connect="1" arrows="1" fold="1" page="1" pageScale="1" pageWidth="1100" pageHeight="850" math="0" shadow="0">
      <root>
        <mxCell id="EpTkJST8O4hXrJpNrsDW-0" />
        <mxCell id="EpTkJST8O4hXrJpNrsDW-1" value="main" style="" parent="EpTkJST8O4hXrJpNrsDW-0" />
        <mxCell id="EpTkJST8O4hXrJpNrsDW-2" value="filereader" style="rounded=1;whiteSpace=wrap;html=1;sketch=0;container=1;recursiveResize=0;verticalAlign=top;arcSize=6;fontStyle=1;autosize=0;points=[];absoluteArcSize=1;shadow=1;strokeColor=#001DBC;fillColor=#0050ef;fontColor=#ffffff;" parent="EpTkJST8O4hXrJpNrsDW-1" vertex="1">
          <mxGeometry x="-50" y="390" width="134" height="125" as="geometry">
            <mxRectangle x="-98" y="-1230" width="99" height="26" as="alternateBounds" />
          </mxGeometry>
        </mxCell>
        <mxCell id="EpTkJST8O4hXrJpNrsDW-3" value="filename" style="rounded=1;whiteSpace=wrap;html=1;sketch=0;points=[[0,0.5,0,0,0],[1,0.5,0,0,0]];arcSize=50;" parent="EpTkJST8O4hXrJpNrsDW-2" vertex="1">
          <mxGeometry x="-16.75" y="36" width="66" height="25" as="geometry" />
        </mxCell>
        <mxCell id="EpTkJST8O4hXrJpNrsDW-4" value="out" style="rounded=1;whiteSpace=wrap;html=1;sketch=0;points=[[0,0.5,0,0,0],[1,0.5,0,0,0]];fillColor=#1ba1e2;fontColor=#ffffff;strokeColor=#006EAF;arcSize=50;" parent="EpTkJST8O4hXrJpNrsDW-2" vertex="1">
          <mxGeometry x="84.75" y="36" width="66" height="25" as="geometry" />
        </mxCell>
        <mxCell id="EpTkJST8O4hXrJpNrsDW-5" value="error" style="rounded=1;whiteSpace=wrap;html=1;sketch=0;points=[[0,0.5,0,0,0],[1,0.5,0,0,0]];fillColor=#1ba1e2;fontColor=#ffffff;strokeColor=#006EAF;arcSize=50;" parent="EpTkJST8O4hXrJpNrsDW-2" vertex="1">
          <mxGeometry x="84.75" y="82.5" width="66" height="25" as="geometry" />
        </mxCell>
        <mxCell id="EpTkJST8O4hXrJpNrsDW-6" value="stdout" style="rhombus;whiteSpace=wrap;html=1;rounded=1;fillColor=#0050ef;fontColor=#ffffff;strokeColor=#001DBC;fontStyle=1;glass=0;sketch=0;fontSize=12;points=[[0,0.5,0,0,0],[0.5,0,0,0,0],[0.5,1,0,0,0],[1,0.5,0,0,0]];shadow=1;opacity=20;" parent="EpTkJST8O4hXrJpNrsDW-1" vertex="1">
          <mxGeometry x="450" y="529" width="80" height="80" as="geometry" />
        </mxCell>
        <mxCell id="EpTkJST8O4hXrJpNrsDW-7" value="filereader" style="rounded=1;whiteSpace=wrap;html=1;sketch=0;container=1;recursiveResize=0;verticalAlign=top;arcSize=6;fontStyle=1;autosize=0;points=[];absoluteArcSize=1;shadow=1;strokeColor=#001DBC;fillColor=#0050ef;fontColor=#ffffff;" parent="EpTkJST8O4hXrJpNrsDW-1" vertex="1">
          <mxGeometry x="-310" y="470" width="134" height="125" as="geometry">
            <mxRectangle x="-98" y="-1230" width="99" height="26" as="alternateBounds" />
          </mxGeometry>
        </mxCell>
        <mxCell id="EpTkJST8O4hXrJpNrsDW-8" value="out" style="rounded=1;whiteSpace=wrap;html=1;sketch=0;points=[[0,0.5,0,0,0],[1,0.5,0,0,0]];fillColor=#1ba1e2;fontColor=#ffffff;strokeColor=#006EAF;arcSize=50;" parent="EpTkJST8O4hXrJpNrsDW-7" vertex="1">
          <mxGeometry x="84.75" y="36" width="66" height="25" as="geometry" />
        </mxCell>
        <mxCell id="EpTkJST8O4hXrJpNrsDW-9" value="error" style="rounded=1;whiteSpace=wrap;html=1;sketch=0;points=[[0,0.5,0,0,0],[1,0.5,0,0,0]];fillColor=#1ba1e2;fontColor=#ffffff;strokeColor=#006EAF;arcSize=50;" parent="EpTkJST8O4hXrJpNrsDW-7" vertex="1">
          <mxGeometry x="84.75" y="82.5" width="66" height="25" as="geometry" />
        </mxCell>
        <mxCell id="EpTkJST8O4hXrJpNrsDW-10" value="filename" style="rounded=1;whiteSpace=wrap;html=1;sketch=0;points=[[0,0.5,0,0,0],[1,0.5,0,0,0]];arcSize=50;" parent="EpTkJST8O4hXrJpNrsDW-7" vertex="1">
          <mxGeometry x="-26" y="36" width="66" height="25" as="geometry" />
        </mxCell>
        <mxCell id="EpTkJST8O4hXrJpNrsDW-11" value="filereader" style="rounded=1;whiteSpace=wrap;html=1;sketch=0;container=1;recursiveResize=0;verticalAlign=top;arcSize=6;fontStyle=1;autosize=0;points=[];absoluteArcSize=1;shadow=1;strokeColor=#001DBC;fillColor=#0050ef;fontColor=#ffffff;" parent="EpTkJST8O4hXrJpNrsDW-1" vertex="1">
          <mxGeometry x="-120" y="77.5" width="134" height="125" as="geometry">
            <mxRectangle x="-98" y="-1230" width="99" height="26" as="alternateBounds" />
          </mxGeometry>
        </mxCell>
        <mxCell id="EpTkJST8O4hXrJpNrsDW-12" value="filename" style="rounded=1;whiteSpace=wrap;html=1;sketch=0;points=[[0,0.5,0,0,0],[1,0.5,0,0,0]];arcSize=50;" parent="EpTkJST8O4hXrJpNrsDW-11" vertex="1">
          <mxGeometry x="-16.75" y="36" width="66" height="25" as="geometry" />
        </mxCell>
        <mxCell id="EpTkJST8O4hXrJpNrsDW-13" value="out" style="rounded=1;whiteSpace=wrap;html=1;sketch=0;points=[[0,0.5,0,0,0],[1,0.5,0,0,0]];fillColor=#1ba1e2;fontColor=#ffffff;strokeColor=#006EAF;arcSize=50;" parent="EpTkJST8O4hXrJpNrsDW-11" vertex="1">
          <mxGeometry x="84.75" y="36" width="66" height="25" as="geometry" />
        </mxCell>
        <mxCell id="EpTkJST8O4hXrJpNrsDW-14" value="error" style="rounded=1;whiteSpace=wrap;html=1;sketch=0;points=[[0,0.5,0,0,0],[1,0.5,0,0,0]];fillColor=#1ba1e2;fontColor=#ffffff;strokeColor=#006EAF;arcSize=50;" parent="EpTkJST8O4hXrJpNrsDW-11" vertex="1">
          <mxGeometry x="84.75" y="82.5" width="66" height="25" as="geometry" />
        </mxCell>
        <mxCell id="EpTkJST8O4hXrJpNrsDW-15" value="stderr" style="rhombus;whiteSpace=wrap;html=1;rounded=1;fillColor=#0050ef;fontColor=#ffffff;strokeColor=#001DBC;fontStyle=1;glass=0;sketch=0;fontSize=12;points=[[0,0.5,0,0,0],[0.5,0,0,0,0],[0.5,1,0,0,0],[1,0.5,0,0,0]];shadow=1;opacity=20;" parent="EpTkJST8O4hXrJpNrsDW-1" vertex="1">
          <mxGeometry x="453.75" y="620" width="80" height="80" as="geometry" />
        </mxCell>
        <mxCell id="EpTkJST8O4hXrJpNrsDW-16" value="filereader" style="rounded=1;whiteSpace=wrap;html=1;sketch=0;container=1;recursiveResize=0;verticalAlign=top;arcSize=6;fontStyle=1;autosize=0;points=[];absoluteArcSize=1;shadow=1;strokeColor=#001DBC;fillColor=#0050ef;fontColor=#ffffff;" parent="EpTkJST8O4hXrJpNrsDW-1" vertex="1">
          <mxGeometry x="-120" y="240" width="134" height="125" as="geometry">
            <mxRectangle x="-98" y="-1230" width="99" height="26" as="alternateBounds" />
          </mxGeometry>
        </mxCell>
        <mxCell id="EpTkJST8O4hXrJpNrsDW-17" value="filename" style="rounded=1;whiteSpace=wrap;html=1;sketch=0;points=[[0,0.5,0,0,0],[1,0.5,0,0,0]];arcSize=50;" parent="EpTkJST8O4hXrJpNrsDW-16" vertex="1">
          <mxGeometry x="-20" y="55" width="66" height="25" as="geometry" />
        </mxCell>
        <mxCell id="EpTkJST8O4hXrJpNrsDW-18" value="out" style="rounded=1;whiteSpace=wrap;html=1;sketch=0;points=[[0,0.5,0,0,0],[1,0.5,0,0,0]];fillColor=#1ba1e2;fontColor=#ffffff;strokeColor=#006EAF;arcSize=50;" parent="EpTkJST8O4hXrJpNrsDW-16" vertex="1">
          <mxGeometry x="84.75" y="36" width="66" height="25" as="geometry" />
        </mxCell>
        <mxCell id="EpTkJST8O4hXrJpNrsDW-19" value="error" style="rounded=1;whiteSpace=wrap;html=1;sketch=0;points=[[0,0.5,0,0,0],[1,0.5,0,0,0]];fillColor=#1ba1e2;fontColor=#ffffff;strokeColor=#006EAF;arcSize=50;" parent="EpTkJST8O4hXrJpNrsDW-16" vertex="1">
          <mxGeometry x="84.75" y="82.5" width="66" height="25" as="geometry" />
        </mxCell>
        <mxCell id="EpTkJST8O4hXrJpNrsDW-20" style="edgeStyle=orthogonalEdgeStyle;rounded=1;orthogonalLoop=1;jettySize=auto;html=1;exitX=1;exitY=0.5;exitDx=0;exitDy=0;exitPerimeter=0;entryX=0;entryY=0.5;entryDx=0;entryDy=0;entryPerimeter=0;strokeColor=#000000;strokeWidth=2;" parent="EpTkJST8O4hXrJpNrsDW-1" source="EpTkJST8O4hXrJpNrsDW-22" target="EpTkJST8O4hXrJpNrsDW-3" edge="1">
          <mxGeometry relative="1" as="geometry">
            <Array as="points">
              <mxPoint x="-1000" y="383" />
              <mxPoint x="-390" y="383" />
              <mxPoint x="-390" y="439" />
            </Array>
          </mxGeometry>
        </mxCell>
        <mxCell id="EpTkJST8O4hXrJpNrsDW-22" value="obsidian_file" style="rhombus;whiteSpace=wrap;html=1;rounded=1;fontStyle=1;glass=0;sketch=0;fontSize=12;points=[[0,0.5,0,0,0],[0.5,0,0,0,0],[0.5,1,0,0,0],[1,0.5,0,0,0]];shadow=1;" parent="EpTkJST8O4hXrJpNrsDW-1" vertex="1">
          <mxGeometry x="-1080" y="360" width="80" height="80" as="geometry" />
        </mxCell>
        <mxCell id="EpTkJST8O4hXrJpNrsDW-23" style="edgeStyle=orthogonalEdgeStyle;rounded=1;orthogonalLoop=1;jettySize=auto;html=1;exitX=1;exitY=0.5;exitDx=0;exitDy=0;exitPerimeter=0;entryX=0;entryY=0.5;entryDx=0;entryDy=0;entryPerimeter=0;strokeColor=#000000;strokeWidth=2;" parent="EpTkJST8O4hXrJpNrsDW-1" source="EpTkJST8O4hXrJpNrsDW-25" target="EpTkJST8O4hXrJpNrsDW-49" edge="1">
          <mxGeometry relative="1" as="geometry">
            <Array as="points">
              <mxPoint x="-940" y="179" />
              <mxPoint x="-940" y="50" />
              <mxPoint x="-590" y="50" />
              <mxPoint x="-590" y="40" />
              <mxPoint x="600" y="40" />
              <mxPoint x="600" y="119" />
            </Array>
          </mxGeometry>
        </mxCell>
        <mxCell id="EpTkJST8O4hXrJpNrsDW-25" value="output_file" style="rhombus;whiteSpace=wrap;html=1;rounded=1;fontStyle=1;glass=0;sketch=0;fontSize=12;points=[[0,0.5,0,0,0],[0.5,0,0,0,0],[0.5,1,0,0,0],[1,0.5,0,0,0]];shadow=1;" parent="EpTkJST8O4hXrJpNrsDW-1" vertex="1">
          <mxGeometry x="-1070" y="138.5" width="80" height="80" as="geometry" />
        </mxCell>
        <mxCell id="EpTkJST8O4hXrJpNrsDW-26" style="edgeStyle=orthogonalEdgeStyle;rounded=1;orthogonalLoop=1;jettySize=auto;html=1;exitX=1;exitY=0.5;exitDx=0;exitDy=0;exitPerimeter=0;entryX=0;entryY=0.5;entryDx=0;entryDy=0;entryPerimeter=0;strokeColor=#000000;strokeWidth=2;" parent="EpTkJST8O4hXrJpNrsDW-1" source="EpTkJST8O4hXrJpNrsDW-28" target="EpTkJST8O4hXrJpNrsDW-12" edge="1">
          <mxGeometry relative="1" as="geometry">
            <Array as="points">
              <mxPoint x="-920" y="253" />
              <mxPoint x="-480" y="253" />
              <mxPoint x="-480" y="126" />
            </Array>
          </mxGeometry>
        </mxCell>
        <mxCell id="EpTkJST8O4hXrJpNrsDW-28" value="front1" style="rhombus;whiteSpace=wrap;html=1;rounded=1;fontStyle=1;glass=0;sketch=0;fontSize=12;points=[[0,0.5,0,0,0],[0.5,0,0,0,0],[0.5,1,0,0,0],[1,0.5,0,0,0]];shadow=1;strokeWidth=2;" parent="EpTkJST8O4hXrJpNrsDW-1" vertex="1">
          <mxGeometry x="-1000" y="210" width="80" height="80" as="geometry" />
        </mxCell>
        <mxCell id="EpTkJST8O4hXrJpNrsDW-30" value="back" style="rhombus;whiteSpace=wrap;html=1;rounded=1;fontStyle=1;glass=0;sketch=0;fontSize=12;points=[[0,0.5,0,0,0],[0.5,0,0,0,0],[0.5,1,0,0,0],[1,0.5,0,0,0]];shadow=1;" parent="EpTkJST8O4hXrJpNrsDW-1" vertex="1">
          <mxGeometry x="-1010" y="412.5" width="80" height="80" as="geometry" />
        </mxCell>
        <mxCell id="EpTkJST8O4hXrJpNrsDW-32" value="close" style="rhombus;whiteSpace=wrap;html=1;rounded=1;fontStyle=1;glass=0;sketch=0;fontSize=12;points=[[0,0.5,0,0,0],[0.5,0,0,0,0],[0.5,1,0,0,0],[1,0.5,0,0,0]];shadow=1;" parent="EpTkJST8O4hXrJpNrsDW-1" vertex="1">
          <mxGeometry x="-1070" y="460" width="80" height="80" as="geometry" />
        </mxCell>
        <mxCell id="EpTkJST8O4hXrJpNrsDW-34" value="front2" style="rhombus;whiteSpace=wrap;html=1;rounded=1;fontStyle=1;glass=0;sketch=0;fontSize=12;points=[[0,0.5,0,0,0],[0.5,0,0,0,0],[0.5,1,0,0,0],[1,0.5,0,0,0]];shadow=1;strokeWidth=2;" parent="EpTkJST8O4hXrJpNrsDW-1" vertex="1">
          <mxGeometry x="-1000" y="310" width="80" height="80" as="geometry" />
        </mxCell>
        <mxCell id="EpTkJST8O4hXrJpNrsDW-35" value="" style="edgeStyle=orthogonalEdgeStyle;rounded=1;orthogonalLoop=1;jettySize=auto;html=1;entryX=0;entryY=0.5;entryDx=0;entryDy=0;entryPerimeter=0;strokeColor=#000000;exitX=1;exitY=0.5;exitDx=0;exitDy=0;exitPerimeter=0;strokeWidth=2;" parent="EpTkJST8O4hXrJpNrsDW-1" source="EpTkJST8O4hXrJpNrsDW-37" target="EpTkJST8O4hXrJpNrsDW-47" edge="1">
          <mxGeometry x="0.0091" relative="1" as="geometry">
            <mxPoint x="313.25" y="417" as="targetPoint" />
            <Array as="points">
              <mxPoint x="-990" y="299" />
              <mxPoint x="-440" y="299" />
              <mxPoint x="-440" y="230" />
              <mxPoint x="220" y="230" />
              <mxPoint x="220" y="153" />
            </Array>
            <mxPoint as="offset" />
          </mxGeometry>
        </mxCell>
        <mxCell id="EpTkJST8O4hXrJpNrsDW-37" value="title" style="rhombus;whiteSpace=wrap;html=1;rounded=1;fontStyle=1;glass=0;sketch=0;fontSize=12;points=[[0,0.5,0,0,0],[0.5,0,0,0,0],[0.5,1,0,0,0],[1,0.5,0,0,0]];shadow=1;" parent="EpTkJST8O4hXrJpNrsDW-1" vertex="1">
          <mxGeometry x="-1070" y="260" width="80" height="80" as="geometry" />
        </mxCell>
        <mxCell id="EpTkJST8O4hXrJpNrsDW-38" style="edgeStyle=orthogonalEdgeStyle;rounded=1;orthogonalLoop=1;jettySize=auto;html=1;entryX=0;entryY=0.5;entryDx=0;entryDy=0;entryPerimeter=0;strokeColor=#000000;strokeWidth=2;exitX=1;exitY=0.5;exitDx=0;exitDy=0;exitPerimeter=0;" parent="EpTkJST8O4hXrJpNrsDW-1" source="EpTkJST8O4hXrJpNrsDW-34" target="EpTkJST8O4hXrJpNrsDW-17" edge="1">
          <mxGeometry relative="1" as="geometry">
            <mxPoint x="-630" y="340" as="sourcePoint" />
            <Array as="points">
              <mxPoint x="-920" y="340" />
              <mxPoint x="-390" y="340" />
              <mxPoint x="-390" y="308" />
            </Array>
          </mxGeometry>
        </mxCell>
        <mxCell id="EpTkJST8O4hXrJpNrsDW-39" style="edgeStyle=orthogonalEdgeStyle;rounded=1;orthogonalLoop=1;jettySize=auto;html=1;exitX=1;exitY=0.5;exitDx=0;exitDy=0;exitPerimeter=0;entryX=0;entryY=0.5;entryDx=0;entryDy=0;entryPerimeter=0;strokeColor=#666600;strokeWidth=2;" parent="EpTkJST8O4hXrJpNrsDW-1" source="EpTkJST8O4hXrJpNrsDW-30" target="EpTkJST8O4hXrJpNrsDW-10" edge="1">
          <mxGeometry relative="1" as="geometry">
            <mxPoint x="-279.25" y="485.5" as="sourcePoint" />
            <Array as="points">
              <mxPoint x="-930" y="433" />
              <mxPoint x="-520" y="433" />
              <mxPoint x="-520" y="520" />
              <mxPoint x="-360" y="520" />
              <mxPoint x="-360" y="519" />
            </Array>
          </mxGeometry>
        </mxCell>
        <mxCell id="EpTkJST8O4hXrJpNrsDW-40" style="edgeStyle=orthogonalEdgeStyle;rounded=1;orthogonalLoop=1;jettySize=auto;html=1;exitX=1;exitY=0.5;exitDx=0;exitDy=0;exitPerimeter=0;entryX=0;entryY=0.5;entryDx=0;entryDy=0;entryPerimeter=0;strokeWidth=2;" parent="EpTkJST8O4hXrJpNrsDW-1" source="EpTkJST8O4hXrJpNrsDW-13" target="EpTkJST8O4hXrJpNrsDW-47" edge="1">
          <mxGeometry relative="1" as="geometry" />
        </mxCell>
        <mxCell id="EpTkJST8O4hXrJpNrsDW-41" style="edgeStyle=orthogonalEdgeStyle;rounded=1;orthogonalLoop=1;jettySize=auto;html=1;exitX=1;exitY=0.5;exitDx=0;exitDy=0;exitPerimeter=0;entryX=0;entryY=0.5;entryDx=0;entryDy=0;entryPerimeter=0;" parent="EpTkJST8O4hXrJpNrsDW-1" source="EpTkJST8O4hXrJpNrsDW-18" target="EpTkJST8O4hXrJpNrsDW-47" edge="1">
          <mxGeometry relative="1" as="geometry">
            <mxPoint x="430" y="150" as="targetPoint" />
          </mxGeometry>
        </mxCell>
        <mxCell id="EpTkJST8O4hXrJpNrsDW-42" style="edgeStyle=orthogonalEdgeStyle;rounded=1;orthogonalLoop=1;jettySize=auto;html=1;exitX=1;exitY=0.5;exitDx=0;exitDy=0;exitPerimeter=0;entryX=0;entryY=0.5;entryDx=0;entryDy=0;entryPerimeter=0;strokeWidth=2;" parent="EpTkJST8O4hXrJpNrsDW-1" source="EpTkJST8O4hXrJpNrsDW-4" target="EpTkJST8O4hXrJpNrsDW-47" edge="1">
          <mxGeometry relative="1" as="geometry">
            <Array as="points">
              <mxPoint x="220" y="439" />
              <mxPoint x="220" y="153" />
            </Array>
          </mxGeometry>
        </mxCell>
        <mxCell id="EpTkJST8O4hXrJpNrsDW-43" value="buffer" style="rounded=1;whiteSpace=wrap;html=1;sketch=0;container=1;recursiveResize=0;verticalAlign=top;arcSize=6;fontStyle=1;autosize=0;points=[];absoluteArcSize=1;shadow=1;strokeColor=#001DBC;fillColor=#0050ef;fontColor=#ffffff;" parent="EpTkJST8O4hXrJpNrsDW-1" vertex="1">
          <mxGeometry x="426.75" y="70" width="134" height="154" as="geometry">
            <mxRectangle x="-98" y="-1230" width="99" height="26" as="alternateBounds" />
          </mxGeometry>
        </mxCell>
        <mxCell id="EpTkJST8O4hXrJpNrsDW-44" value="open" style="rounded=1;whiteSpace=wrap;html=1;sketch=0;points=[[0,0.5,0,0,0],[1,0.5,0,0,0]];arcSize=50;" parent="EpTkJST8O4hXrJpNrsDW-43" vertex="1">
          <mxGeometry x="-16.75" y="36" width="66" height="25" as="geometry" />
        </mxCell>
        <mxCell id="EpTkJST8O4hXrJpNrsDW-45" value="output" style="rounded=1;whiteSpace=wrap;html=1;sketch=0;points=[[0,0.5,0,0,0],[1,0.5,0,0,0]];fillColor=#1ba1e2;fontColor=#ffffff;strokeColor=#006EAF;arcSize=50;" parent="EpTkJST8O4hXrJpNrsDW-43" vertex="1">
          <mxGeometry x="84.75" y="82.5" width="66" height="25" as="geometry" />
        </mxCell>
        <mxCell id="EpTkJST8O4hXrJpNrsDW-46" value="close" style="rounded=1;whiteSpace=wrap;html=1;sketch=0;points=[[0,0.5,0,0,0],[1,0.5,0,0,0]];arcSize=50;" parent="EpTkJST8O4hXrJpNrsDW-43" vertex="1">
          <mxGeometry x="-16.75" y="107.5" width="66" height="25" as="geometry" />
        </mxCell>
        <mxCell id="EpTkJST8O4hXrJpNrsDW-47" value="append" style="rounded=1;whiteSpace=wrap;html=1;sketch=0;points=[[0,0.5,0,0,0],[1,0.5,0,0,0]];arcSize=50;" parent="EpTkJST8O4hXrJpNrsDW-43" vertex="1">
          <mxGeometry x="-16.75" y="70" width="66" height="25" as="geometry" />
        </mxCell>
        <mxCell id="EpTkJST8O4hXrJpNrsDW-48" value="filewriter" style="rounded=1;whiteSpace=wrap;html=1;sketch=0;container=1;recursiveResize=0;verticalAlign=top;arcSize=6;fontStyle=1;autosize=0;points=[];absoluteArcSize=1;shadow=1;strokeColor=#001DBC;fillColor=#0050ef;fontColor=#ffffff;" parent="EpTkJST8O4hXrJpNrsDW-1" vertex="1">
          <mxGeometry x="672.75" y="70" width="134" height="125" as="geometry">
            <mxRectangle x="-98" y="-1230" width="99" height="26" as="alternateBounds" />
          </mxGeometry>
        </mxCell>
        <mxCell id="EpTkJST8O4hXrJpNrsDW-49" value="filename" style="rounded=1;whiteSpace=wrap;html=1;sketch=0;points=[[0,0.5,0,0,0],[1,0.5,0,0,0]];arcSize=50;" parent="EpTkJST8O4hXrJpNrsDW-48" vertex="1">
          <mxGeometry x="-16.75" y="36" width="66" height="25" as="geometry" />
        </mxCell>
        <mxCell id="EpTkJST8O4hXrJpNrsDW-50" value="error" style="rounded=1;whiteSpace=wrap;html=1;sketch=0;points=[[0,0.5,0,0,0],[1,0.5,0,0,0]];fillColor=#1ba1e2;fontColor=#ffffff;strokeColor=#006EAF;arcSize=50;" parent="EpTkJST8O4hXrJpNrsDW-48" vertex="1">
          <mxGeometry x="84.75" y="82.5" width="66" height="25" as="geometry" />
        </mxCell>
        <mxCell id="EpTkJST8O4hXrJpNrsDW-51" value="data" style="rounded=1;whiteSpace=wrap;html=1;sketch=0;points=[[0,0.5,0,0,0],[1,0.5,0,0,0]];arcSize=50;" parent="EpTkJST8O4hXrJpNrsDW-48" vertex="1">
          <mxGeometry x="-16.75" y="82.5" width="66" height="25" as="geometry" />
        </mxCell>
        <mxCell id="EpTkJST8O4hXrJpNrsDW-68" style="edgeStyle=orthogonalEdgeStyle;rounded=1;orthogonalLoop=1;jettySize=auto;html=1;entryX=0;entryY=0.5;entryDx=0;entryDy=0;entryPerimeter=0;strokeWidth=2;exitX=0.5;exitY=0;exitDx=0;exitDy=0;exitPerimeter=0;" parent="EpTkJST8O4hXrJpNrsDW-1" source="EpTkJST8O4hXrJpNrsDW-25" target="EpTkJST8O4hXrJpNrsDW-44" edge="1">
          <mxGeometry relative="1" as="geometry">
            <Array as="points">
              <mxPoint x="-1030" y="40" />
              <mxPoint x="370" y="40" />
              <mxPoint x="370" y="119" />
            </Array>
          </mxGeometry>
        </mxCell>
        <mxCell id="EpTkJST8O4hXrJpNrsDW-69" style="edgeStyle=orthogonalEdgeStyle;rounded=0;orthogonalLoop=1;jettySize=auto;html=1;exitX=1;exitY=0.5;exitDx=0;exitDy=0;exitPerimeter=0;entryX=0;entryY=0.5;entryDx=0;entryDy=0;entryPerimeter=0;strokeWidth=2;" parent="EpTkJST8O4hXrJpNrsDW-1" source="EpTkJST8O4hXrJpNrsDW-45" target="EpTkJST8O4hXrJpNrsDW-51" edge="1">
          <mxGeometry relative="1" as="geometry">
            <Array as="points">
              <mxPoint x="610" y="165" />
              <mxPoint x="610" y="165" />
            </Array>
          </mxGeometry>
        </mxCell>
        <mxCell id="EpTkJST8O4hXrJpNrsDW-70" style="edgeStyle=orthogonalEdgeStyle;rounded=1;orthogonalLoop=1;jettySize=auto;html=1;exitX=1;exitY=0.5;exitDx=0;exitDy=0;exitPerimeter=0;entryX=0;entryY=0.5;entryDx=0;entryDy=0;entryPerimeter=0;strokeWidth=2;" parent="EpTkJST8O4hXrJpNrsDW-1" source="EpTkJST8O4hXrJpNrsDW-8" target="EpTkJST8O4hXrJpNrsDW-47" edge="1">
          <mxGeometry relative="1" as="geometry">
            <Array as="points">
              <mxPoint x="-120" y="519" />
              <mxPoint x="-120" y="540" />
              <mxPoint x="220" y="540" />
              <mxPoint x="220" y="153" />
            </Array>
          </mxGeometry>
        </mxCell>
        <mxCell id="EpTkJST8O4hXrJpNrsDW-71" value="" style="shape=orEllipse;perimeter=ellipsePerimeter;whiteSpace=wrap;html=1;backgroundOutline=1;opacity=20;" parent="EpTkJST8O4hXrJpNrsDW-1" vertex="1">
          <mxGeometry x="-1080" y="720" width="80" height="80" as="geometry" />
        </mxCell>
        <mxCell id="EpTkJST8O4hXrJpNrsDW-75" style="edgeStyle=orthogonalEdgeStyle;rounded=1;orthogonalLoop=1;jettySize=auto;html=1;entryX=0;entryY=0.5;entryDx=0;entryDy=0;entryPerimeter=0;exitX=1;exitY=0.5;exitDx=0;exitDy=0;exitPerimeter=0;" parent="EpTkJST8O4hXrJpNrsDW-1" source="EpTkJST8O4hXrJpNrsDW-32" target="EpTkJST8O4hXrJpNrsDW-46" edge="1">
          <mxGeometry relative="1" as="geometry">
            <Array as="points">
              <mxPoint x="-990" y="480" />
              <mxPoint x="-550" y="480" />
              <mxPoint x="-550" y="728" />
              <mxPoint x="310" y="728" />
              <mxPoint x="310" y="190" />
            </Array>
          </mxGeometry>
        </mxCell>
        <mxCell id="EpTkJST8O4hXrJpNrsDW-76" value="errors" style="" parent="EpTkJST8O4hXrJpNrsDW-0" />
        <mxCell id="EpTkJST8O4hXrJpNrsDW-77" value="filereader" style="rounded=1;whiteSpace=wrap;html=1;sketch=0;container=1;recursiveResize=0;verticalAlign=top;arcSize=6;fontStyle=1;autosize=0;points=[];absoluteArcSize=1;shadow=1;strokeColor=#001DBC;fillColor=#0050ef;fontColor=#ffffff;opacity=20;" parent="EpTkJST8O4hXrJpNrsDW-76" vertex="1">
          <mxGeometry x="-50" y="390" width="134" height="125" as="geometry">
            <mxRectangle x="-98" y="-1230" width="99" height="26" as="alternateBounds" />
          </mxGeometry>
        </mxCell>
        <mxCell id="EpTkJST8O4hXrJpNrsDW-78" value="filename" style="rounded=1;whiteSpace=wrap;html=1;sketch=0;points=[[0,0.5,0,0,0],[1,0.5,0,0,0]];arcSize=50;opacity=20;" parent="EpTkJST8O4hXrJpNrsDW-77" vertex="1">
          <mxGeometry x="-16.75" y="36" width="66" height="25" as="geometry" />
        </mxCell>
        <mxCell id="EpTkJST8O4hXrJpNrsDW-79" value="out" style="rounded=1;whiteSpace=wrap;html=1;sketch=0;points=[[0,0.5,0,0,0],[1,0.5,0,0,0]];fillColor=#1ba1e2;fontColor=#ffffff;strokeColor=#006EAF;arcSize=50;opacity=20;" parent="EpTkJST8O4hXrJpNrsDW-77" vertex="1">
          <mxGeometry x="84.75" y="36" width="66" height="25" as="geometry" />
        </mxCell>
        <mxCell id="EpTkJST8O4hXrJpNrsDW-80" value="error" style="rounded=1;whiteSpace=wrap;html=1;sketch=0;points=[[0,0.5,0,0,0],[1,0.5,0,0,0]];fillColor=#1ba1e2;fontColor=#ffffff;strokeColor=#006EAF;arcSize=50;" parent="EpTkJST8O4hXrJpNrsDW-77" vertex="1">
          <mxGeometry x="84.75" y="82.5" width="66" height="25" as="geometry" />
        </mxCell>
        <mxCell id="EpTkJST8O4hXrJpNrsDW-81" value="stdout" style="rhombus;whiteSpace=wrap;html=1;rounded=1;fillColor=#0050ef;fontColor=#ffffff;strokeColor=#001DBC;fontStyle=1;glass=0;sketch=0;fontSize=12;points=[[0,0.5,0,0,0],[0.5,0,0,0,0],[0.5,1,0,0,0],[1,0.5,0,0,0]];shadow=1;opacity=20;" parent="EpTkJST8O4hXrJpNrsDW-76" vertex="1">
          <mxGeometry x="450" y="529" width="80" height="80" as="geometry" />
        </mxCell>
        <mxCell id="EpTkJST8O4hXrJpNrsDW-82" value="filereader" style="rounded=1;whiteSpace=wrap;html=1;sketch=0;container=1;recursiveResize=0;verticalAlign=top;arcSize=6;fontStyle=1;autosize=0;points=[];absoluteArcSize=1;shadow=1;strokeColor=#001DBC;fillColor=#0050ef;fontColor=#ffffff;opacity=20;" parent="EpTkJST8O4hXrJpNrsDW-76" vertex="1">
          <mxGeometry x="-310" y="470" width="134" height="125" as="geometry">
            <mxRectangle x="-98" y="-1230" width="99" height="26" as="alternateBounds" />
          </mxGeometry>
        </mxCell>
        <mxCell id="EpTkJST8O4hXrJpNrsDW-83" value="out" style="rounded=1;whiteSpace=wrap;html=1;sketch=0;points=[[0,0.5,0,0,0],[1,0.5,0,0,0]];fillColor=#1ba1e2;fontColor=#ffffff;strokeColor=#006EAF;arcSize=50;opacity=20;" parent="EpTkJST8O4hXrJpNrsDW-82" vertex="1">
          <mxGeometry x="84.75" y="36" width="66" height="25" as="geometry" />
        </mxCell>
        <mxCell id="EpTkJST8O4hXrJpNrsDW-84" value="error" style="rounded=1;whiteSpace=wrap;html=1;sketch=0;points=[[0,0.5,0,0,0],[1,0.5,0,0,0]];fillColor=#1ba1e2;fontColor=#ffffff;strokeColor=#006EAF;arcSize=50;" parent="EpTkJST8O4hXrJpNrsDW-82" vertex="1">
          <mxGeometry x="84.75" y="82.5" width="66" height="25" as="geometry" />
        </mxCell>
        <mxCell id="EpTkJST8O4hXrJpNrsDW-85" value="filename" style="rounded=1;whiteSpace=wrap;html=1;sketch=0;points=[[0,0.5,0,0,0],[1,0.5,0,0,0]];arcSize=50;opacity=20;" parent="EpTkJST8O4hXrJpNrsDW-82" vertex="1">
          <mxGeometry x="-26" y="36" width="66" height="25" as="geometry" />
        </mxCell>
        <mxCell id="EpTkJST8O4hXrJpNrsDW-86" value="filereader" style="rounded=1;whiteSpace=wrap;html=1;sketch=0;container=1;recursiveResize=0;verticalAlign=top;arcSize=6;fontStyle=1;autosize=0;points=[];absoluteArcSize=1;shadow=1;strokeColor=#001DBC;fillColor=#0050ef;fontColor=#ffffff;opacity=20;" parent="EpTkJST8O4hXrJpNrsDW-76" vertex="1">
          <mxGeometry x="-120" y="77.5" width="134" height="125" as="geometry">
            <mxRectangle x="-98" y="-1230" width="99" height="26" as="alternateBounds" />
          </mxGeometry>
        </mxCell>
        <mxCell id="EpTkJST8O4hXrJpNrsDW-87" value="filename" style="rounded=1;whiteSpace=wrap;html=1;sketch=0;points=[[0,0.5,0,0,0],[1,0.5,0,0,0]];arcSize=50;opacity=20;" parent="EpTkJST8O4hXrJpNrsDW-86" vertex="1">
          <mxGeometry x="-16.75" y="36" width="66" height="25" as="geometry" />
        </mxCell>
        <mxCell id="EpTkJST8O4hXrJpNrsDW-88" value="out" style="rounded=1;whiteSpace=wrap;html=1;sketch=0;points=[[0,0.5,0,0,0],[1,0.5,0,0,0]];fillColor=#1ba1e2;fontColor=#ffffff;strokeColor=#006EAF;arcSize=50;opacity=20;" parent="EpTkJST8O4hXrJpNrsDW-86" vertex="1">
          <mxGeometry x="84.75" y="36" width="66" height="25" as="geometry" />
        </mxCell>
        <mxCell id="EpTkJST8O4hXrJpNrsDW-89" value="error" style="rounded=1;whiteSpace=wrap;html=1;sketch=0;points=[[0,0.5,0,0,0],[1,0.5,0,0,0]];fillColor=#1ba1e2;fontColor=#ffffff;strokeColor=#006EAF;arcSize=50;" parent="EpTkJST8O4hXrJpNrsDW-86" vertex="1">
          <mxGeometry x="84.75" y="82.5" width="66" height="25" as="geometry" />
        </mxCell>
        <mxCell id="EpTkJST8O4hXrJpNrsDW-90" value="stderr" style="rhombus;whiteSpace=wrap;html=1;rounded=1;fillColor=#0050ef;fontColor=#ffffff;strokeColor=#001DBC;fontStyle=1;glass=0;sketch=0;fontSize=12;points=[[0,0.5,0,0,0],[0.5,0,0,0,0],[0.5,1,0,0,0],[1,0.5,0,0,0]];shadow=1;" parent="EpTkJST8O4hXrJpNrsDW-76" vertex="1">
          <mxGeometry x="453.75" y="620" width="80" height="80" as="geometry" />
        </mxCell>
        <mxCell id="EpTkJST8O4hXrJpNrsDW-91" value="filereader" style="rounded=1;whiteSpace=wrap;html=1;sketch=0;container=1;recursiveResize=0;verticalAlign=top;arcSize=6;fontStyle=1;autosize=0;points=[];absoluteArcSize=1;shadow=1;strokeColor=#001DBC;fillColor=#0050ef;fontColor=#ffffff;opacity=20;" parent="EpTkJST8O4hXrJpNrsDW-76" vertex="1">
          <mxGeometry x="-120" y="240" width="134" height="125" as="geometry">
            <mxRectangle x="-98" y="-1230" width="99" height="26" as="alternateBounds" />
          </mxGeometry>
        </mxCell>
        <mxCell id="EpTkJST8O4hXrJpNrsDW-92" value="filename" style="rounded=1;whiteSpace=wrap;html=1;sketch=0;points=[[0,0.5,0,0,0],[1,0.5,0,0,0]];arcSize=50;opacity=20;" parent="EpTkJST8O4hXrJpNrsDW-91" vertex="1">
          <mxGeometry x="-20" y="55" width="66" height="25" as="geometry" />
        </mxCell>
        <mxCell id="EpTkJST8O4hXrJpNrsDW-93" value="out" style="rounded=1;whiteSpace=wrap;html=1;sketch=0;points=[[0,0.5,0,0,0],[1,0.5,0,0,0]];fillColor=#1ba1e2;fontColor=#ffffff;strokeColor=#006EAF;arcSize=50;opacity=20;" parent="EpTkJST8O4hXrJpNrsDW-91" vertex="1">
          <mxGeometry x="84.75" y="36" width="66" height="25" as="geometry" />
        </mxCell>
        <mxCell id="EpTkJST8O4hXrJpNrsDW-94" value="error" style="rounded=1;whiteSpace=wrap;html=1;sketch=0;points=[[0,0.5,0,0,0],[1,0.5,0,0,0]];fillColor=#1ba1e2;fontColor=#ffffff;strokeColor=#006EAF;arcSize=50;" parent="EpTkJST8O4hXrJpNrsDW-91" vertex="1">
          <mxGeometry x="84.75" y="82.5" width="66" height="25" as="geometry" />
        </mxCell>
        <mxCell id="EpTkJST8O4hXrJpNrsDW-95" value="obsidian_file" style="rhombus;whiteSpace=wrap;html=1;rounded=1;fontStyle=1;glass=0;sketch=0;fontSize=12;points=[[0,0.5,0,0,0],[0.5,0,0,0,0],[0.5,1,0,0,0],[1,0.5,0,0,0]];shadow=1;opacity=20;" parent="EpTkJST8O4hXrJpNrsDW-76" vertex="1">
          <mxGeometry x="-1080" y="360" width="80" height="80" as="geometry" />
        </mxCell>
        <mxCell id="EpTkJST8O4hXrJpNrsDW-96" value="output_file" style="rhombus;whiteSpace=wrap;html=1;rounded=1;fontStyle=1;glass=0;sketch=0;fontSize=12;points=[[0,0.5,0,0,0],[0.5,0,0,0,0],[0.5,1,0,0,0],[1,0.5,0,0,0]];shadow=1;opacity=20;" parent="EpTkJST8O4hXrJpNrsDW-76" vertex="1">
          <mxGeometry x="-1070" y="138.5" width="80" height="80" as="geometry" />
        </mxCell>
        <mxCell id="EpTkJST8O4hXrJpNrsDW-97" value="front1" style="rhombus;whiteSpace=wrap;html=1;rounded=1;fontStyle=1;glass=0;sketch=0;fontSize=12;points=[[0,0.5,0,0,0],[0.5,0,0,0,0],[0.5,1,0,0,0],[1,0.5,0,0,0]];shadow=1;strokeWidth=2;opacity=20;" parent="EpTkJST8O4hXrJpNrsDW-76" vertex="1">
          <mxGeometry x="-1000" y="210" width="80" height="80" as="geometry" />
        </mxCell>
        <mxCell id="EpTkJST8O4hXrJpNrsDW-98" value="back" style="rhombus;whiteSpace=wrap;html=1;rounded=1;fontStyle=1;glass=0;sketch=0;fontSize=12;points=[[0,0.5,0,0,0],[0.5,0,0,0,0],[0.5,1,0,0,0],[1,0.5,0,0,0]];shadow=1;opacity=20;" parent="EpTkJST8O4hXrJpNrsDW-76" vertex="1">
          <mxGeometry x="-1010" y="412.5" width="80" height="80" as="geometry" />
        </mxCell>
        <mxCell id="EpTkJST8O4hXrJpNrsDW-99" value="close" style="rhombus;whiteSpace=wrap;html=1;rounded=1;fontStyle=1;glass=0;sketch=0;fontSize=12;points=[[0,0.5,0,0,0],[0.5,0,0,0,0],[0.5,1,0,0,0],[1,0.5,0,0,0]];shadow=1;opacity=20;" parent="EpTkJST8O4hXrJpNrsDW-76" vertex="1">
          <mxGeometry x="-1070" y="460" width="80" height="80" as="geometry" />
        </mxCell>
        <mxCell id="EpTkJST8O4hXrJpNrsDW-100" value="front2" style="rhombus;whiteSpace=wrap;html=1;rounded=1;fontStyle=1;glass=0;sketch=0;fontSize=12;points=[[0,0.5,0,0,0],[0.5,0,0,0,0],[0.5,1,0,0,0],[1,0.5,0,0,0]];shadow=1;strokeWidth=2;opacity=20;" parent="EpTkJST8O4hXrJpNrsDW-76" vertex="1">
          <mxGeometry x="-1000" y="310" width="80" height="80" as="geometry" />
        </mxCell>
        <mxCell id="EpTkJST8O4hXrJpNrsDW-101" value="title" style="rhombus;whiteSpace=wrap;html=1;rounded=1;fontStyle=1;glass=0;sketch=0;fontSize=12;points=[[0,0.5,0,0,0],[0.5,0,0,0,0],[0.5,1,0,0,0],[1,0.5,0,0,0]];shadow=1;opacity=20;" parent="EpTkJST8O4hXrJpNrsDW-76" vertex="1">
          <mxGeometry x="-1070" y="260" width="80" height="80" as="geometry" />
        </mxCell>
        <mxCell id="EpTkJST8O4hXrJpNrsDW-102" style="edgeStyle=orthogonalEdgeStyle;rounded=1;orthogonalLoop=1;jettySize=auto;html=1;exitX=1;exitY=0.5;exitDx=0;exitDy=0;exitPerimeter=0;entryX=0;entryY=0.5;entryDx=0;entryDy=0;entryPerimeter=0;strokeColor=#d6b656;fillColor=#fff2cc;strokeWidth=2;" parent="EpTkJST8O4hXrJpNrsDW-76" source="EpTkJST8O4hXrJpNrsDW-89" target="EpTkJST8O4hXrJpNrsDW-90" edge="1">
          <mxGeometry relative="1" as="geometry">
            <Array as="points">
              <mxPoint x="370" y="173" />
              <mxPoint x="370" y="660" />
            </Array>
          </mxGeometry>
        </mxCell>
        <mxCell id="EpTkJST8O4hXrJpNrsDW-103" style="edgeStyle=orthogonalEdgeStyle;rounded=1;orthogonalLoop=1;jettySize=auto;html=1;exitX=1;exitY=0.5;exitDx=0;exitDy=0;exitPerimeter=0;strokeColor=#d6b656;fillColor=#fff2cc;strokeWidth=2;" parent="EpTkJST8O4hXrJpNrsDW-76" source="EpTkJST8O4hXrJpNrsDW-94" target="EpTkJST8O4hXrJpNrsDW-90" edge="1">
          <mxGeometry relative="1" as="geometry">
            <Array as="points">
              <mxPoint x="370" y="335" />
              <mxPoint x="370" y="660" />
            </Array>
          </mxGeometry>
        </mxCell>
        <mxCell id="EpTkJST8O4hXrJpNrsDW-104" style="edgeStyle=orthogonalEdgeStyle;rounded=1;orthogonalLoop=1;jettySize=auto;html=1;exitX=1;exitY=0.5;exitDx=0;exitDy=0;exitPerimeter=0;entryX=0;entryY=0.5;entryDx=0;entryDy=0;entryPerimeter=0;strokeColor=#d6b656;fillColor=#fff2cc;strokeWidth=2;" parent="EpTkJST8O4hXrJpNrsDW-76" source="EpTkJST8O4hXrJpNrsDW-80" target="EpTkJST8O4hXrJpNrsDW-90" edge="1">
          <mxGeometry relative="1" as="geometry">
            <Array as="points">
              <mxPoint x="370" y="485" />
              <mxPoint x="370" y="660" />
            </Array>
          </mxGeometry>
        </mxCell>
        <mxCell id="EpTkJST8O4hXrJpNrsDW-105" style="edgeStyle=orthogonalEdgeStyle;rounded=1;orthogonalLoop=1;jettySize=auto;html=1;exitX=1;exitY=0.5;exitDx=0;exitDy=0;exitPerimeter=0;entryX=0;entryY=0.5;entryDx=0;entryDy=0;entryPerimeter=0;strokeColor=#d6b656;fillColor=#fff2cc;strokeWidth=2;" parent="EpTkJST8O4hXrJpNrsDW-76" source="EpTkJST8O4hXrJpNrsDW-84" target="EpTkJST8O4hXrJpNrsDW-90" edge="1">
          <mxGeometry relative="1" as="geometry">
            <Array as="points">
              <mxPoint x="-120" y="565" />
              <mxPoint x="-120" y="660" />
            </Array>
          </mxGeometry>
        </mxCell>
        <mxCell id="EpTkJST8O4hXrJpNrsDW-106" value="buffer" style="rounded=1;whiteSpace=wrap;html=1;sketch=0;container=1;recursiveResize=0;verticalAlign=top;arcSize=6;fontStyle=1;autosize=0;points=[];absoluteArcSize=1;shadow=1;strokeColor=#001DBC;fillColor=#0050ef;fontColor=#ffffff;opacity=20;" parent="EpTkJST8O4hXrJpNrsDW-76" vertex="1">
          <mxGeometry x="426.75" y="70" width="134" height="154" as="geometry">
            <mxRectangle x="-98" y="-1230" width="99" height="26" as="alternateBounds" />
          </mxGeometry>
        </mxCell>
        <mxCell id="EpTkJST8O4hXrJpNrsDW-107" value="open" style="rounded=1;whiteSpace=wrap;html=1;sketch=0;points=[[0,0.5,0,0,0],[1,0.5,0,0,0]];arcSize=50;opacity=20;" parent="EpTkJST8O4hXrJpNrsDW-106" vertex="1">
          <mxGeometry x="-16.75" y="36" width="66" height="25" as="geometry" />
        </mxCell>
        <mxCell id="EpTkJST8O4hXrJpNrsDW-108" value="output" style="rounded=1;whiteSpace=wrap;html=1;sketch=0;points=[[0,0.5,0,0,0],[1,0.5,0,0,0]];fillColor=#1ba1e2;fontColor=#ffffff;strokeColor=#006EAF;arcSize=50;opacity=20;" parent="EpTkJST8O4hXrJpNrsDW-106" vertex="1">
          <mxGeometry x="84.75" y="82.5" width="66" height="25" as="geometry" />
        </mxCell>
        <mxCell id="EpTkJST8O4hXrJpNrsDW-109" value="close" style="rounded=1;whiteSpace=wrap;html=1;sketch=0;points=[[0,0.5,0,0,0],[1,0.5,0,0,0]];arcSize=50;opacity=20;" parent="EpTkJST8O4hXrJpNrsDW-106" vertex="1">
          <mxGeometry x="-16.75" y="107.5" width="66" height="25" as="geometry" />
        </mxCell>
        <mxCell id="EpTkJST8O4hXrJpNrsDW-110" value="append" style="rounded=1;whiteSpace=wrap;html=1;sketch=0;points=[[0,0.5,0,0,0],[1,0.5,0,0,0]];arcSize=50;opacity=20;" parent="EpTkJST8O4hXrJpNrsDW-106" vertex="1">
          <mxGeometry x="-16.75" y="70" width="66" height="25" as="geometry" />
        </mxCell>
        <mxCell id="EpTkJST8O4hXrJpNrsDW-111" value="filewriter" style="rounded=1;whiteSpace=wrap;html=1;sketch=0;container=1;recursiveResize=0;verticalAlign=top;arcSize=6;fontStyle=1;autosize=0;points=[];absoluteArcSize=1;shadow=1;strokeColor=#001DBC;fillColor=#0050ef;fontColor=#ffffff;opacity=20;" parent="EpTkJST8O4hXrJpNrsDW-76" vertex="1">
          <mxGeometry x="672.75" y="70" width="134" height="125" as="geometry">
            <mxRectangle x="-98" y="-1230" width="99" height="26" as="alternateBounds" />
          </mxGeometry>
        </mxCell>
        <mxCell id="EpTkJST8O4hXrJpNrsDW-112" value="filename" style="rounded=1;whiteSpace=wrap;html=1;sketch=0;points=[[0,0.5,0,0,0],[1,0.5,0,0,0]];arcSize=50;opacity=20;" parent="EpTkJST8O4hXrJpNrsDW-111" vertex="1">
          <mxGeometry x="-16.75" y="36" width="66" height="25" as="geometry" />
        </mxCell>
        <mxCell id="EpTkJST8O4hXrJpNrsDW-113" value="error" style="rounded=1;whiteSpace=wrap;html=1;sketch=0;points=[[0,0.5,0,0,0],[1,0.5,0,0,0]];fillColor=#1ba1e2;fontColor=#ffffff;strokeColor=#006EAF;arcSize=50;" parent="EpTkJST8O4hXrJpNrsDW-111" vertex="1">
          <mxGeometry x="84.75" y="82.5" width="66" height="25" as="geometry" />
        </mxCell>
        <mxCell id="EpTkJST8O4hXrJpNrsDW-114" value="data" style="rounded=1;whiteSpace=wrap;html=1;sketch=0;points=[[0,0.5,0,0,0],[1,0.5,0,0,0]];arcSize=50;opacity=20;" parent="EpTkJST8O4hXrJpNrsDW-111" vertex="1">
          <mxGeometry x="-16.75" y="82.5" width="66" height="25" as="geometry" />
        </mxCell>
        <mxCell id="EpTkJST8O4hXrJpNrsDW-131" style="edgeStyle=orthogonalEdgeStyle;rounded=1;orthogonalLoop=1;jettySize=auto;html=1;exitX=1;exitY=0.5;exitDx=0;exitDy=0;exitPerimeter=0;entryX=0;entryY=0.5;entryDx=0;entryDy=0;entryPerimeter=0;strokeColor=#d6b656;fillColor=#fff2cc;strokeWidth=2;" parent="EpTkJST8O4hXrJpNrsDW-76" source="EpTkJST8O4hXrJpNrsDW-113" target="EpTkJST8O4hXrJpNrsDW-90" edge="1">
          <mxGeometry relative="1" as="geometry">
            <Array as="points">
              <mxPoint x="844" y="165" />
              <mxPoint x="844" y="399" />
              <mxPoint x="370" y="399" />
              <mxPoint x="370" y="660" />
            </Array>
          </mxGeometry>
        </mxCell>
        <mxCell id="EpTkJST8O4hXrJpNrsDW-133" value="" style="shape=orEllipse;perimeter=ellipsePerimeter;whiteSpace=wrap;html=1;backgroundOutline=1;opacity=20;" parent="EpTkJST8O4hXrJpNrsDW-76" vertex="1">
          <mxGeometry x="-1080" y="720" width="80" height="80" as="geometry" />
        </mxCell>
      </root>
    </mxGraphModel>
  </diagram>
</mxfile>
